<?xml version="1.0" encoding="utf-8"?>
<!-- Generator: Adobe Illustrator 25.2.1, SVG Export Plug-In . SVG Version: 6.00 Build 0)  -->
<svg version="1.1" id="Layer_1" xmlns="http://www.w3.org/2000/svg" xmlns:xlink="http://www.w3.org/1999/xlink" x="0px" y="0px"
	 viewBox="0 0 512 512" style="enable-background:new 0 0 512 512;" xml:space="preserve">
<path d="M65.1,31.3C52.1,31.3,41.4,42,41.4,55s10.6,23.7,23.7,23.7S88.9,68.1,88.9,55S78.2,31.3,65.1,31.3z M65.1,63.6
	c-4.7,0-8.6-3.9-8.6-8.6c0-4.7,3.9-8.6,8.6-8.6c4.7,0,8.6,3.9,8.6,8.6C73.7,59.8,69.9,63.6,65.1,63.6z"/>
<path d="M128.8,31.3C115.7,31.3,105,42,105,55s10.6,23.7,23.7,23.7s23.7-10.6,23.7-23.7S141.8,31.3,128.8,31.3z M128.8,63.6
	c-4.7,0-8.6-3.9-8.6-8.6c0-4.7,3.9-8.6,8.6-8.6c4.7,0,8.6,3.9,8.6,8.6C137.3,59.8,133.5,63.6,128.8,63.6z"/>
<path d="M192.4,31.3c-13.1,0-23.7,10.6-23.7,23.7s10.6,23.7,23.7,23.7s23.7-10.6,23.7-23.7S205.5,31.3,192.4,31.3z M192.4,63.6
	c-4.7,0-8.6-3.9-8.6-8.6c0-4.7,3.8-8.6,8.6-8.6s8.6,3.9,8.6,8.6C201,59.8,197.1,63.6,192.4,63.6z"/>
<path d="M484.2,0H27.8C12.5,0,0,12.5,0,27.8V362c0,15.3,12.5,27.8,27.8,27.8h48.9c-2.3,3-2.1,7.3,0.6,10l36.4,36.4
	c-2.7,5.6-5.1,11.4-7.1,17.2H55c-4.2,0-7.6,3.4-7.6,7.6v43.4c0,4.2,3.4,7.6,7.6,7.6h149.5c4.2,0,7.6-3.4,7.6-7.6
	c0-23.1,18.8-41.9,41.9-41.9c23.1,0,41.9,18.8,41.9,41.9c0,4.2,3.4,7.6,7.6,7.6h149.5c4.2,0,7.6-3.4,7.6-7.6V461
	c0-4.2-3.4-7.6-7.6-7.6h-51.5c-2-5.9-4.4-11.6-7.1-17.2l36.4-36.4c2.7-2.7,2.9-7,0.6-10h52.9c15.3,0,27.8-12.5,27.8-27.8V174.7
	c0-4.2-3.4-7.6-7.6-7.6c-4.2,0-7.6,3.4-7.6,7.6V362c0,7-5.7,12.6-12.6,12.6h-68L371.6,330v-51.8c0-4.2-3.4-7.6-7.6-7.6h-13.6V224
	l10.7-9.9c2.1-2,3-5,2.1-7.8L345,147.7c-1-3.2-3.9-5.3-7.2-5.3h-20.2c-3.3,0-6.2,2.2-7.2,5.3l-18.2,58.6c-0.9,2.8-0.1,5.8,2.1,7.8
	L305,224v46.7h-13.6c-4.2,0-7.6,3.4-7.6,7.6v19.7h-59.6v-11.5l29.1-29.1c1.4-1.4,2.2-3.3,2.2-5.4v-62.1c0-2-0.8-4-2.3-5.4
	l-40.4-39.9c-2.2-2.1-5.4-2.8-8.2-1.6c-2.8,1.2-4.7,3.9-4.7,7v67.5l-19.7,12.4l-19.7-12.4v-4.3c0-4.2-3.4-7.6-7.6-7.6
	s-7.6,3.4-7.6,7.6v8.5c0,2.6,1.3,5,3.5,6.4l27.3,17.2c2.5,1.6,5.6,1.6,8.1,0l27.3-17.2c2.2-1.4,3.5-3.8,3.5-6.4v-53.6l25.2,24.9
	v55.8l-29.1,29.1c-1.4,1.4-2.2,3.3-2.2,5.4v14.8c-3.5,0.7-6.1,3.8-6.1,7.4v51.5c-5.9,2-11.6,4.4-17.2,7.1l-34.3-34.3v-46.5
	c0-2-0.8-3.9-2.2-5.4l-29.1-29.1V193l25.2-24.9v9.6c0,4.2,3.4,7.6,7.6,7.6s7.6-3.4,7.6-7.6V150c0-3.1-1.8-5.8-4.7-7
	c-2.8-1.2-6.1-0.5-8.2,1.6l-40.4,39.9c-1.4,1.4-2.2,3.4-2.2,5.4V252c0,2,0.8,3.9,2.2,5.4l29.1,29.1V330l-44.6,44.6H27.8
	c-7,0-12.6-5.7-12.6-12.6v-252h481.7v29.3c0,4.2,3.4,7.6,7.6,7.6s7.6-3.4,7.6-7.6V27.8C512,12.5,499.5,0,484.2,0z M317.7,215.1
	l-9.6-8.9l15.1-48.7h9l15.1,48.7l-9.6,8.9c-1.6,1.4-2.4,3.4-2.4,5.6v50h-15.1v-50C320.1,218.5,319.2,216.5,317.7,215.1z
	 M356.5,285.8v44l-34.3,34.3c-5.6-2.7-11.4-5.1-17.2-7.1v-51.5c0-3.7-2.6-6.7-6.1-7.4v-12.3L356.5,285.8L356.5,285.8z M187.9,380
	c7.9-4.2,16.3-7.7,24.9-10.3c3.2-1,5.4-3.9,5.4-7.2v-49.4h71.7v49.4c0,3.3,2.2,6.3,5.4,7.2c8.6,2.6,17,6.1,24.9,10.3
	c2.9,1.6,6.6,1,8.9-1.3l34.9-34.9l43.8,43.8c0,0,0,0,0,0l6.9,6.9l-34.9,34.9c-2.4,2.4-2.9,6-1.3,8.9c4.2,7.9,7.7,16.3,10.3,24.9
	c1,3.2,3.9,5.4,7.2,5.4h49.4v28.3h-77c-3.9-59.7-53.7-107-114.4-107c-16.2,0-31.9,3.3-46.6,9.9c-3.8,1.7-5.5,6.2-3.8,10
	c1.7,3.8,6.2,5.5,10,3.8c12.8-5.7,26.4-8.6,40.4-8.6c52.3,0,95.3,40.6,99.2,91.9h-42.6c-3.7-27.9-27.7-49.5-56.6-49.5
	s-52.8,21.6-56.6,49.5h-42.6c1.8-24.9,12.7-47.7,31.2-65c3.1-2.9,3.2-7.7,0.3-10.7c-2.9-3-7.7-3.2-10.7-0.3
	c-21.2,19.9-34,47.2-36,76.1h-77v-28.3H112c3.3,0,6.3-2.2,7.2-5.4c2.6-8.6,6.1-17,10.3-24.9c1.6-2.9,1-6.6-1.3-8.9l-34.9-34.9
	l6.9-6.9c0,0,0,0,0,0l43.8-43.8l34.9,34.9C181.3,381,184.9,381.6,187.9,380z M15.1,94.9V27.8c0-7,5.7-12.6,12.6-12.6h456.5
	c7,0,12.6,5.7,12.6,12.6v67.2H15.1z"/>
</svg>
