<?xml version="1.0" encoding="utf-8"?>
<!-- Generator: Adobe Illustrator 25.2.1, SVG Export Plug-In . SVG Version: 6.00 Build 0)  -->
<svg version="1.1" id="Capa_1" xmlns="http://www.w3.org/2000/svg" xmlns:xlink="http://www.w3.org/1999/xlink" x="0px" y="0px"
	 viewBox="0 0 480 480" style="enable-background:new 0 0 480 480;" xml:space="preserve">
<g>
	<g>
		<path d="M168.1,103.9c-66.3,0-120,53.7-120.1,119.9c0,47.7,28.2,91,72,110.1V392c0,13.3,10.7,24,24,24v8c0,13.3,10.7,24,24,24
			s24-10.7,24-24v-8c13.3,0,24-10.7,24-24v-58.1c43.7-19.1,71.9-62.2,72-109.9C288,157.7,234.3,104,168.1,103.9z M176,424
			c0,4.4-3.6,8-8,8s-8-3.6-8-8v-8h16V424z M192,400h-48c-4.4,0-8-3.6-8-8h64C200,396.4,196.4,400,192,400z M200,376h-64v-8h64V376z
			 M200,352h-64v-12.5c20.9,6,43.1,6,64,0V352z M196.1,324l11.8-82.9l-15.8-2.3l-12.6,88.5c-7.6,0.9-15.3,0.9-22.9,0l-12.6-88.5
			l-15.8,2.3l11.8,82.9C95.1,311.4,64.1,270.6,64,224c-0.1-57.4,46.5-104,103.9-104.1c57.4-0.1,104,46.5,104.1,103.9
			C272,270.5,241,311.4,196.1,324z"/>
	</g>
</g>
<g>
	<g>
		<path d="M477.7,138.3l-104-104c-1.5-1.5-3.5-2.3-5.7-2.3V8c0-4.4-3.6-8-8-8H88v0.1c-2.1,0-4.2,0.8-5.7,2.3l-80,80
			c-1.5,1.5-2.3,3.5-2.3,5.7H0v384c0,4.4,3.6,8,8,8h352c4.4,0,8-3.6,8-8V211.3l18.3,18.3c3.1,3.1,8.2,3.1,11.3,0l80-80
			C480.8,146.5,480.8,141.5,477.7,138.3z M336,16h16v16h-16V16z M80,27.3V80H27.3L80,27.3z M320,464H16V96h72c4.4,0,8-3.6,8-8V16
			h224v16h-32c-4.4,0-8,3.6-8,8v80c0,2.1,0.8,4.2,2.3,5.7l37.7,37.7V464z M352,464h-16V179.3l16,16V464z M392,212.7l-96-96V48h68.7
			l96,96L392,212.7z"/>
	</g>
</g>
<g>
	<g>
		<path d="M203.6,200.9c-2.3-1.1-4.9-1.1-7.2,0L168,215.1l-28.4-14.2c-2.3-1.1-4.9-1.1-7.2,0l-32,16l7.2,14.3l28.4-14.2l28.4,14.3
			c2.3,1.1,4.9,1.1,7.2,0l28.4-14.3l28.4,14.3l7.2-14.3L203.6,200.9z"/>
	</g>
</g>
<g>
	<g>
		<path d="M336,64c-13.3,0-24,10.7-24,24s10.7,24,24,24s24-10.7,24-24S349.3,64,336,64z M336,96c-4.4,0-8-3.6-8-8s3.6-8,8-8
			s8,3.6,8,8S340.4,96,336,96z"/>
	</g>
</g>
<g>
	<g>
		<rect x="200" y="80" width="64" height="16"/>
	</g>
</g>
<g>
	<g>
		<rect x="240" y="48" width="24" height="16"/>
	</g>
</g>
<g>
	<g>
		<rect x="160" y="48" width="64" height="16"/>
	</g>
</g>
<g>
	<g>
		<rect x="375.7" y="148" transform="matrix(0.7071 -0.7071 0.7071 0.7071 8.0147 331.3574)" width="56.6" height="16"/>
	</g>
</g>
<g>
	<g>
		<path d="M478.2,275.1L478.2,275.1L446.2,235c-3-3.5-8.2-3.8-11.7-0.8c-0.3,0.2-0.6,0.5-0.8,0.8l-32,40l0.1,0.1
			c-1.2,1.4-1.8,3.1-1.8,4.9v184c0,8.8,7.2,16,16,16h48c8.8,0,16-7.2,16-16V280C480,278.2,479.3,276.5,478.2,275.1z M440,252.8
			l15.4,19.2h-30.7L440,252.8z M464,464h-48V288h48V464z"/>
	</g>
</g>
<g>
	<g>
		<rect x="240" y="344" width="64" height="16"/>
	</g>
</g>
<g>
	<g>
		<rect x="240" y="376" width="64" height="16"/>
	</g>
</g>
<g>
	<g>
		<rect x="240" y="408" width="64" height="16"/>
	</g>
</g>
</svg>
