<?xml version="1.0" standalone="no"?>
<!DOCTYPE svg PUBLIC "-//W3C//DTD SVG 1.1//EN" "http://www.w3.org/Graphics/SVG/1.1/DTD/svg11.dtd" >
<svg xmlns="http://www.w3.org/2000/svg">
<metadata>Generated by IcoMoon</metadata>
<defs>
<font id="icomoon" horiz-adv-x="1024">
<font-face units-per-em="1024" ascent="960" descent="-64" />
<missing-glyph horiz-adv-x="1024" />
<glyph unicode="&#x20;" horiz-adv-x="512" d="" />
<glyph unicode="&#xe900;" glyph-name="check-not-cercle" horiz-adv-x="1434" d="M593.92 7.68c-10.24 0-30.72 0-40.96 10.24s-20.48 10.24-30.72 20.48l-430.080 430.080c-10.24 10.24-20.48 20.48-20.48 30.72-10.24 10.24-10.24 30.72-10.24 40.96s0 30.72 10.24 40.96 10.24 20.48 20.48 30.72c10.24 10.24 20.48 20.48 30.72 20.48 10.24 10.24 30.72 10.24 40.96 10.24s30.72 0 40.96-10.24c10.24-10.24 20.48-10.24 30.72-20.48l358.4-358.4 655.36 655.36c20.48 20.48 40.96 30.72 71.68 30.72s51.2-10.24 71.68-30.72 30.72-40.96 30.72-71.68c0-30.72-10.24-51.2-30.72-71.68l-727.040-727.040c-10.24-10.24-20.48-20.48-30.72-20.48s-30.72-10.24-40.96-10.24z" />
<glyph unicode="&#xe901;" glyph-name="cheked" d="M492.495 935.619c-268.19 0-487.619-219.429-487.619-487.619s219.429-487.619 487.619-487.619c268.19 0 487.619 219.429 487.619 487.619s-219.429 487.619-487.619 487.619zM394.971 228.571l-146.286 146.286c-19.505 19.505-19.505 48.762 0 68.267s48.762 19.505 68.267 0l78.019-78.019 224.305 224.305c19.505 19.505 48.762 19.505 68.267 0s19.505-48.762 0-68.267l-292.571-292.571z" />
<glyph unicode="&#xe902;" glyph-name="server" horiz-adv-x="1132" d="M997.053 933.053h-862.316c-26.947 0-53.895-10.779-75.453-32.337s-32.337-48.505-32.337-75.453v-215.579c0-26.947 10.779-53.895 32.337-75.453s48.505-32.337 75.453-32.337h862.316c26.947 0 53.895 10.779 75.453 32.337s32.337 48.505 32.337 75.453v215.579c0 26.947-10.779 53.895-32.337 75.453-21.558 16.168-48.505 32.337-75.453 32.337zM727.579 717.474c0-32.337-21.558-53.895-53.895-53.895s-53.895 21.558-53.895 53.895 21.558 53.895 53.895 53.895 53.895-26.947 53.895-53.895zM943.158 717.474c0-32.337-21.558-53.895-53.895-53.895s-53.895 21.558-53.895 53.895 21.558 53.895 53.895 53.895 53.895-26.947 53.895-53.895zM997.053 394.105h-862.316c-26.947 0-53.895-10.779-75.453-32.337s-32.337-48.505-32.337-75.453v-215.579c0-26.947 10.779-53.895 32.337-75.453s48.505-32.337 75.453-32.337h862.316c26.947 0 53.895 10.779 75.453 32.337s32.337 48.505 32.337 75.453v215.579c0 26.947-10.779 53.895-32.337 75.453-21.558 16.168-48.505 32.337-75.453 32.337zM727.579 178.526c0-32.337-21.558-53.895-53.895-53.895s-53.895 21.558-53.895 53.895c0 32.337 21.558 53.895 53.895 53.895s53.895-26.947 53.895-53.895zM943.158 178.526c0-32.337-21.558-53.895-53.895-53.895s-53.895 21.558-53.895 53.895c0 32.337 21.558 53.895 53.895 53.895s53.895-26.947 53.895-53.895z" />
<glyph unicode="&#xe903;" glyph-name="map" horiz-adv-x="683" d="M682.667 594.286c0 43.886-9.752 87.771-24.381 131.657-19.505 39.010-43.886 78.019-73.143 112.152s-68.267 58.514-112.152 73.143c-39.010 19.505-87.771 24.381-131.657 24.381s-87.771-9.752-131.657-24.381-78.019-43.886-112.152-73.143c-34.133-29.257-58.514-68.267-73.143-112.152-19.505-39.010-24.381-87.771-24.381-131.657 0-68.267 19.505-131.657 53.638-185.295v0c117.029-180.419 287.695-448.61 287.695-448.61l287.695 448.61c34.133 53.638 53.638 117.029 53.638 185.295zM341.333 448c-39.010 0-78.019 14.629-102.4 43.886-29.257 29.257-43.886 63.39-43.886 102.4s14.629 78.019 43.886 102.4c29.257 29.257 63.39 43.886 102.4 43.886s78.019-14.629 102.4-43.886c29.257-29.257 43.886-63.39 43.886-102.4s-14.629-78.019-43.886-102.4c-24.381-29.257-63.39-43.886-102.4-43.886z" />
<glyph unicode="&#xe904;" glyph-name="user" horiz-adv-x="916" d="M458.105 566.568c53.895 0 102.4 21.558 134.737 59.284 37.726 37.726 59.284 86.232 59.284 134.737 0 53.895-21.558 102.4-59.284 134.737-37.726 37.726-86.232 59.284-134.737 59.284-53.895 0-102.4-21.558-134.737-59.284-37.726-37.726-59.284-86.232-59.284-134.737 0-53.895 21.558-102.4 59.284-134.737 32.337-43.116 80.842-59.284 134.737-59.284zM183.242-15.495c-97.011 0-183.242 80.842-145.516 172.463 21.558 53.895 53.895 102.4 97.011 145.516s91.621 75.453 145.516 97.011c53.895 21.558 113.179 32.337 172.463 32.337s118.568-10.779 172.463-32.337c53.895-21.558 102.4-53.895 145.516-97.011s75.453-91.621 97.011-145.516c37.726-91.621-43.116-172.463-145.516-172.463h-538.947z" />
<glyph unicode="&#xe905;" glyph-name="Vector" horiz-adv-x="969" d="M860.714 583.611v0c0 0 0 0 0 0l-376.389 376.389-376.389-376.389c0 0 0 0 0 0v0c-58.119-58.119-94.097-132.843-105.168-215.87-11.070-80.259 8.303-163.286 49.816-232.476s107.935-124.541 182.659-152.216c77.492-30.443 160.519-33.211 238.011-8.303 5.535 2.768 13.838 2.768 19.373 0 77.492-24.908 163.286-22.141 238.011 8.303 77.492 30.443 141.146 83.027 182.659 152.216s60.886 152.216 49.816 232.476c-5.535 80.259-44.281 157.751-102.4 215.87zM240.778 334.53c-2.768-2.768-2.768-2.768-5.535-5.535 0-2.768-2.768-5.535-2.768-8.303 0-66.422 19.373-132.843 55.351-188.195 0 0 0-2.768 0-5.535s0-2.768-2.768-2.768c0 0-2.768-2.768-2.768-2.768-2.768 0-2.768 0-5.535 0-24.908 11.070-49.816 27.676-69.189 47.049-41.514 41.514-63.654 96.865-63.654 154.984s22.141 113.47 63.654 154.984l273.989 273.989 273.989-273.989c41.514-41.514 63.654-96.865 63.654-154.984s-22.141-113.47-63.654-154.984c-19.373-19.373-44.281-35.978-69.189-47.049-2.768 0-2.768 0-5.535 0s-2.768 0-2.768 2.768c0 0-2.768 2.768-2.768 2.768 0 2.768 0 2.768 0 5.535 35.978 55.351 52.584 121.773 55.351 188.195 0 2.768 0 5.535-2.768 8.303 0 2.768-2.768 5.535-5.535 5.535l-130.076 138.378c0 0-2.768 2.768-5.535 2.768s-2.768 0-5.535-2.768c0 0-2.768-2.768-2.768-5.535s0-2.768 0-5.535c49.816-91.33 8.303-221.405-63.654-293.362v0c-11.070-11.070-22.141-16.605-35.978-16.605s-27.676 5.535-35.978 16.605v0c-71.957 71.957-116.238 202.032-63.654 293.362 0 2.768 0 2.768 0 5.535s0 2.768-2.768 5.535c0 0-2.768 2.768-5.535 2.768s-2.768 0-5.535-2.768l-124.541-138.378z" />
<glyph unicode="&#xe906;" glyph-name="instgram" d="M668.612 444.988c0-42.165-18.071-81.318-45.176-111.435-30.118-30.118-69.271-45.176-111.435-45.176s-81.318 18.071-111.435 45.176c-30.118 30.118-45.176 69.271-45.176 111.435 0 9.035 0 18.071 3.012 27.106h-54.212v-210.824c0-15.059 12.047-27.106 27.106-27.106h367.435c6.024 0 15.059 3.012 18.071 9.035 6.024 6.024 9.035 12.047 9.035 18.071v210.824h-54.212c-3.012-9.035-3.012-18.071-3.012-27.106zM512 339.576c15.059 0 27.106 3.012 39.153 9.035s24.094 12.047 33.129 24.094c9.035 9.035 18.071 21.082 24.094 33.129s9.035 27.106 9.035 39.153c0 15.059-3.012 27.106-9.035 39.153s-12.047 24.094-24.094 33.129c-9.035 9.035-21.082 18.071-33.129 24.094s-27.106 9.035-39.153 9.035c-27.106 0-54.212-12.047-75.294-30.118-21.082-21.082-30.118-45.176-30.118-75.294s12.047-54.212 30.118-75.294c21.082-18.071 48.188-30.118 75.294-30.118zM638.494 556.424h63.247c3.012 0 9.035 3.012 12.047 6.024s6.024 6.024 6.024 12.047v63.247c0 3.012-3.012 9.035-6.024 12.047s-6.024 6.024-12.047 6.024h-63.247c-3.012 0-9.035-3.012-12.047-6.024s-6.024-6.024-6.024-12.047v-63.247c3.012-12.047 9.035-18.071 18.071-18.071zM512 950.965c-135.529 0-262.024-54.212-358.4-147.576-96.376-96.376-147.576-222.871-147.576-358.4s54.212-262.024 147.576-358.4c96.376-96.376 222.871-147.576 358.4-147.576 66.259 0 132.518 12.047 192.753 39.153 60.235 24.094 117.459 63.247 165.647 108.424 48.188 48.188 84.329 102.4 108.424 165.647 24.094 60.235 39.153 126.494 39.153 192.753s-12.047 132.518-39.153 192.753c-24.094 60.235-63.247 117.459-108.424 165.647-48.188 48.188-102.4 84.329-165.647 108.424-60.235 27.106-126.494 39.153-192.753 39.153zM774.024 240.188c0-33.129-27.106-57.224-57.224-57.224h-409.6c-33.129 0-57.224 27.106-57.224 57.224v409.6c0 33.129 27.106 57.224 57.224 57.224h409.6c33.129 0 57.224-27.106 57.224-57.224v-409.6z" />
<glyph unicode="&#xe907;" glyph-name="twitter" horiz-adv-x="1054" d="M524.047 950.965c-280.094 0-505.976-225.882-505.976-505.976s225.882-505.976 505.976-505.976 505.976 225.882 505.976 505.976-225.882 505.976-505.976 505.976zM728.847 535.341c0-3.012 0-9.035 0-12.047 0-132.518-99.388-283.106-283.106-283.106-54.212 0-108.424 15.059-153.6 45.176 9.035 0 15.059 0 24.094 0 48.188 0 90.353 15.059 123.482 42.165-21.082 0-42.165 6.024-57.224 21.082-18.071 12.047-30.118 30.118-36.141 48.188 15.059-3.012 30.118-3.012 45.176 3.012-21.082 6.024-42.165 18.071-57.224 33.129-15.059 18.071-21.082 39.153-21.082 63.247v0c12.047-6.024 30.118-12.047 45.176-12.047-21.082 15.059-36.141 36.141-42.165 60.235s-3.012 51.2 12.047 72.282c24.094-30.118 57.224-57.224 90.353-75.294s75.294-27.106 114.447-30.118c-6.024 21.082-3.012 45.176 6.024 63.247 9.035 21.082 24.094 36.141 45.176 48.188 18.071 9.035 42.165 15.059 63.247 9.035s42.165-15.059 57.224-30.118c21.082 3.012 45.176 12.047 63.247 24.094-6.024-24.094-24.094-42.165-45.176-54.212 21.082 3.012 39.153 9.035 57.224 15.059-15.059-18.071-30.118-36.141-51.2-51.2z" />
<glyph unicode="&#xe908;" glyph-name="facebook" d="M505.976 950.965c-280.094 0-505.976-225.882-505.976-505.976s225.882-505.976 505.976-505.976c280.094 0 505.976 225.882 505.976 505.976s-225.882 505.976-505.976 505.976zM626.447 601.6h-75.294c-9.035 0-18.071-12.047-18.071-27.106v-54.212h96.376l-15.059-78.306h-81.318v-234.918h-90.353v234.918h-81.318v78.306h81.318v45.176c0 66.259 45.176 120.471 108.424 120.471h75.294v-84.329z" />
<glyph unicode="&#xe909;" glyph-name="technical-support" d="M938.938 704.828h-10.38c-6.136 21.549-14.708 42.225-25.603 61.772l7.378 7.38c8.442 8.438 13.088 19.692 13.088 31.689s-4.646 23.249-13.094 31.697l-49.159 49.101c-8.442 8.494-19.709 13.17-31.729 13.17-12.018 0-23.287-4.676-31.687-13.128l-7.37-7.37c-19.562 10.93-40.245 19.518-61.78 25.651v10.378c0.002 24.719-20.107 44.831-44.829 44.831h-69.502c-24.719 0-44.831-20.111-44.831-44.831v-10.378c-21.531-6.132-42.227-14.722-61.828-25.659l-7.336 7.336c-8.446 8.494-19.713 13.17-31.731 13.168-12.018 0-23.285-4.678-31.685-13.128l-49.149-49.151c-8.442-8.438-13.088-19.692-13.088-31.689s4.646-23.249 13.086-31.687l7.376-7.378c-10.942-19.608-19.518-40.287-25.619-61.774h-10.418c-24.719 0-44.831-20.111-44.831-44.831v-69.562c0-24.719 20.111-44.831 44.831-44.831h10.418c6.102-21.485 14.678-42.165 25.619-61.774l-7.376-7.378c-8.442-8.438-13.088-19.692-13.088-31.689 0-11.996 4.646-23.249 13.086-31.687l49.111-49.111c8.442-8.494 19.707-13.17 31.725-13.17h0.002c12.018 0 23.287 4.676 31.689 13.128l7.376 7.378c19.622-10.948 40.317-19.526 61.828-25.625v-10.414c0-24.719 20.111-44.831 44.831-44.831h69.502c24.719 0 44.831 20.111 44.831 44.831v10.414c21.517 6.102 42.197 14.676 61.78 25.617l7.328-7.328c8.442-8.494 19.709-13.17 31.727-13.17 12.020 0 23.289 4.678 31.681 13.12l49.215 49.161c8.44 8.44 13.086 19.693 13.086 31.689 0 11.998-4.646 23.249-13.086 31.687l-7.38 7.38c10.896 19.548 19.466 40.223 25.603 61.772h10.38c24.719 0 44.831 20.111 44.831 44.831v69.562c0.002 24.719-20.107 44.831-44.829 44.831zM688.605 335.264c0-2.62-2.212-4.832-4.832-4.832h-69.502c-2.62 0-4.832 2.212-4.832 4.832v152.048c0 8.364-5.204 15.844-13.044 18.752-53.743 19.931-89.85 71.654-89.85 128.705 0 45.213 22.513 87.596 60.212 113.365 1.692 1.156 3.188 2.1 4.496 2.874-0.072-2.6-0.256-5.072-0.354-6.362-0.15-2.030-0.27-3.632-0.27-5.222v-94.392c0-43.325 33.853-79.508 77.066-82.374 0.882-0.058 1.766-0.058 2.648 0 43.183 2.864 77.010 39.047 77.010 82.374v94.392c0 1.582-0.118 3.174-0.266 5.192-0.096 1.296-0.28 3.782-0.35 6.394 1.304-0.772 2.792-1.714 4.478-2.868 37.709-25.775 60.222-68.158 60.222-113.371 0-57.045-36.087-108.769-89.798-128.707-7.838-2.91-13.040-10.388-13.040-18.75v-152.050zM943.77 590.435c0-2.574-2.258-4.832-4.832-4.832h-25.907c-9.344 0-17.444-6.47-19.506-15.584-6.334-27.985-17.304-54.449-32.605-78.654-4.996-7.904-3.848-18.216 2.764-24.827l18.37-18.37c1.192-1.192 1.37-2.644 1.37-3.404 0-0.758-0.178-2.212-1.364-3.396l-49.257-49.203c-1.126-1.132-2.452-1.37-3.364-1.37-0.91 0-2.234 0.238-3.402 1.414l-18.37 18.37c-6.622 6.62-16.944 7.76-24.847 2.752-17.072-10.818-35.243-19.402-54.217-25.745v86.424c62.046 28.875 102.837 91.8 102.837 160.762 0 58.433-29.029 113.159-77.648 146.392-7.448 5.090-30.097 20.575-49.907 9.174-19.452-11.2-17.514-37.453-16.688-48.665 0.072-0.974 0.142-1.792 0.158-2.25v-94.392c0-21.891-16.732-40.245-38.335-42.355-21.633 2.112-38.391 20.465-38.391 42.355l-0.002 94.248c0.018 0.602 0.090 1.42 0.162 2.398 0.834 11.206 2.788 37.445-16.648 48.651-19.801 11.422-42.485-4.070-49.947-9.164-48.623-33.235-77.65-87.962-77.65-146.394 0-68.972 40.813-131.901 102.893-160.768v-86.418c-18.978 6.344-37.171 14.932-54.293 25.755-3.292 2.080-6.996 3.094-10.682 3.094-5.166 0-10.29-1.998-14.148-5.858l-18.408-18.41c-1.126-1.134-2.452-1.372-3.364-1.372s-2.234 0.238-3.402 1.412l-49.151 49.153c-1.194 1.192-1.372 2.646-1.372 3.404 0 0.76 0.178 2.212 1.372 3.406l18.368 18.37c6.612 6.612 7.76 16.924 2.764 24.827-15.38 24.333-26.347 50.785-32.597 78.62-2.048 9.13-10.156 15.62-19.514 15.62h-25.963c-2.574 0-4.832 2.258-4.832 4.832v69.562c0 2.62 2.212 4.832 4.832 4.832h25.963c9.358 0 17.464 6.49 19.514 15.62 6.25 27.835 17.216 54.289 32.597 78.62 4.996 7.904 3.848 18.216-2.764 24.827l-18.37 18.37c-1.192 1.192-1.37 2.644-1.37 3.404s0.178 2.212 1.372 3.406l49.193 49.195c1.126 1.132 2.45 1.37 3.362 1.37s2.236-0.238 3.404-1.412l18.368-18.37c6.616-6.614 16.928-7.76 24.829-2.764 24.301 15.364 50.783 26.353 78.7 32.659 9.12 2.060 15.594 10.162 15.594 19.508v25.905c0 2.62 2.212 4.832 4.832 4.832h69.502c2.62 0 4.832-2.212 4.832-4.832v-25.909c0-9.348 6.474-17.448 15.592-19.508 27.943-6.312 54.395-17.296 78.624-32.649 7.906-5.008 18.226-3.868 24.847 2.752l18.41 18.412c1.126 1.132 2.452 1.37 3.362 1.37 0.912 0 2.236-0.238 3.412-1.42l49.203-49.145c1.192-1.192 1.37-2.644 1.37-3.404s-0.178-2.212-1.372-3.406l-18.368-18.37c-6.612-6.612-7.76-16.924-2.764-24.827 15.3-24.205 26.271-50.667 32.605-78.654 2.062-9.114 10.162-15.584 19.506-15.584h25.907c2.62 0 4.832-2.212 4.832-4.832v-69.56zM765.553 79.38c-7.81-7.81-7.81-20.473 0-28.285 3.906-3.904 9.024-5.858 14.142-5.858s10.236 1.954 14.142 5.858l0.056 0.056c7.81 7.81 7.782 20.445-0.030 28.255s-20.499 7.78-28.309-0.026zM858.202 273.117l-158.778-81.54c-13.46 13.94-32.319 22.635-53.181 22.635h-108.789c-6.092 0-7.58 0.484-7.68 0.518-0.882 0.464-3.67 3.084-5.908 5.188l-0.992 0.932c-88.014 82.852-162.362 77.602-246.91 44.235-13.68-5.4-13.944-5.412-27.681-5.998l-24.599-0.018c-7.008 21.141-26.951 36.441-50.413 36.441h-79.99c-29.253 0-53.051-23.825-53.051-53.109v-209.933c0-29.251 23.797-53.051 53.051-53.051h79.99c23.459 0 43.401 15.282 50.411 36.397h44.999c3.974 0 3.974 0 8.596-1.302 1.68-0.474 3.724-1.050 6.364-1.76l206.983-55.375c9.124-2.464 17.492-4.89 25.585-7.234 26.519-7.684 48.811-14.144 72.044-14.144 26.259 0 53.717 8.252 89.83 32.319 0.174 0.116 0.348 0.236 0.52 0.358l39.515 28.177c8.994 6.414 11.086 18.902 4.672 27.895-6.414 8.996-18.906 11.086-27.893 4.672l-39.253-27.989c-52.407-34.857-74.66-28.413-128.303-12.87-8.264 2.394-16.808 4.87-26.329 7.442l-206.999 55.377c-2.424 0.652-4.326 1.188-5.886 1.628-7.552 2.128-10.376 2.8-19.444 2.8h-42.303v163.244h21.613c0.288 0 0.572 0.006 0.86 0.018l1.14 0.048c16.766 0.716 21.455 1.174 40.659 8.756 74.256 29.303 131.575 32.785 204.833-36.179l0.99-0.93c12.52-11.766 19.729-16.558 40.981-16.558h108.789c12.768 0 23.901-7.088 29.705-17.53 0.062-0.116 0.134-0.226 0.198-0.342 2.592-4.794 4.068-10.278 4.068-16.102 0-18.702-15.238-33.915-33.969-33.915h-176.31c-11.044 0-19.999-8.954-19.999-19.999s8.956-19.999 19.999-19.999h176.31c40.787 0 73.968 33.157 73.968 73.914 0 5.54-0.632 10.932-1.792 16.126l158.052 81.168c14.96 7.68 35.415 6.856 45.571-9.624 8.984-14.526 4.042-33.833-11.488-44.905l-69.332-49.379c-8.998-6.408-11.098-18.896-4.69-27.893 3.902-5.478 10.058-8.4 16.308-8.4 4.014 0 8.066 1.206 11.584 3.71l69.34 49.385c32.931 23.477 42.515 65.832 22.311 98.493-19.867 32.243-61.942 42.647-97.878 24.199zM186.379 32.47c0-7.076-6.002-13.052-13.108-13.052h-79.99c-7.076 0-13.052 5.978-13.052 13.052v209.931c0 7.228 5.856 13.11 13.052 13.11h79.99c7.106 0 13.108-6.002 13.108-13.11z" />
<glyph unicode="&#xe90a;" glyph-name="photo" d="M903.138 741.782h-47.568c-8.286 0-15-6.714-15-15s6.714-15 15-15h47.568c8.286 0 15 6.714 15 15s-6.716 15-15 15zM636.232 669.42c-83.876 0-152.114-68.266-152.114-152.174 0-83.878 68.236-152.118 152.114-152.118 83.908 0 152.172 68.24 152.172 152.118 0 83.908-68.264 152.174-152.172 152.174zM636.232 395.126c-67.334 0-122.114 54.782-122.114 122.118 0 67.366 54.78 122.176 122.114 122.176 67.364 0 122.172-54.808 122.172-122.176 0-67.334-54.806-122.118-122.172-122.118zM967.832 821.874h-182.232l-17.64 48.752c-2.844 7.852-11.5 31.744-35.954 31.744h-233.348c-24.456 0-33.112-23.892-35.958-31.75l-17.638-48.746h-148.376v36.262c0 19.748-16.066 35.814-35.814 35.814h-66.828c-19.716 0-35.756-16.066-35.756-35.814v-36.91c-26.934-4.132-47.628-27.48-47.628-55.578v-306.818l-67.96-13.182c-28.57-5.568-47.284-33.326-41.722-61.86l67.35-347.488c4.916-25.14 27.096-42.67 51.866-42.67 3.296 0 6.64 0.31 9.994 0.956l146.512 28.426c8.132 1.576 13.446 9.45 11.868 17.582s-9.454 13.452-17.582 11.868l-146.486-28.42c-12.344-2.382-24.326 5.71-26.726 17.99l-67.35 347.48c-2.4 12.314 5.682 24.286 18 26.69l365.31 70.862c5.924 1.134 11.974-0.118 17.040-3.54 5.064-3.422 8.48-8.568 9.622-14.518l67.406-347.418c2.4-12.314-5.682-24.286-18-26.69l-146.57-28.426c-8.132-1.578-13.446-9.45-11.87-17.582 1.578-8.132 9.45-13.44 17.582-11.872l146.582 28.432c28.57 5.568 47.284 33.326 41.722 61.862l-18.228 93.946h167.43c8.286 0 15 6.714 15 15s-6.714 15-15 15h-173.25l-15.806 81.468c39.696-29.866 88.342-46.426 138.834-46.426 100.1 0 185.518 63.994 217.512 153.204h140.26v-162.018c0-14.462-11.738-26.228-26.168-26.228h-207.92c-8.286 0-15-6.714-15-15s6.714-15 15-15h207.92c30.97 0 56.168 25.224 56.168 56.228v488.162c0 31.004-25.198 56.226-56.168 56.226zM490.908 860.406c2.874 7.938 5.482 11.962 7.75 11.962h233.348c2.822 0 5.772-6.506 7.746-11.956l13.946-38.538h-276.734zM405.3 517.244c0-0.42 0.020-0.838 0.022-1.256l-108.636-21.074v70.064h113.584c-3.25-15.408-4.97-31.372-4.97-47.734zM188.286 858.136c0 3.152 2.636 5.814 5.756 5.814h66.828c3.206 0 5.814-2.608 5.814-5.814v-36.262h-78.398zM140.66 765.648c0 14.46 11.74 26.226 26.168 26.226h99.856v-302.778l-50.78-9.85v169.176c0 14.408-11.72 26.128-26.128 26.128h-49.116zM140.66 644.55h45.244v-171.124l-45.244-8.776zM636.232 316.304c-56.478 0-110.308 23.804-148.342 65.43l-18.036 92.96c-2.652 13.806-10.566 25.77-22.282 33.688-3.852 2.602-7.96 4.65-12.228 6.146-0.012 0.906-0.048 1.81-0.048 2.716 0 110.83 90.14 200.996 200.934 200.996 110.828 0 200.992-90.168 200.992-200.996 0.002-110.798-90.162-200.94-200.99-200.94zM994 469.508h-131.752c3.252 15.408 4.974 31.374 4.974 47.736s-1.722 32.326-4.972 47.734h131.75zM994 594.978h-140.248c-31.988 89.244-117.412 153.262-217.52 153.262-100.082 0-185.486-64.020-217.466-153.262h-122.082v196.896h671.146c14.43 0 26.168-11.766 26.168-26.226v-170.67zM454.406 142.838c3.52 5.258 4.8 11.416 3.61 17.298l-50.98 256.176c-2.71 13.398-16.694 21.584-31.858 18.672l-278.254-53.968c-15.224-2.942-25.13-15.814-22.528-29.436l51.002-255.996c1.132-5.924 4.632-11.136 9.86-14.68 4.574-3.1 10.198-4.73 16.022-4.73 1.99 0 4.004 0.19 6.008 0.578l278.196 53.968c7.888 1.522 14.784 5.94 18.922 12.118zM133.49 209.274l-28.584 142.732 273.774 53.1 16.61-83.468-35.102-6.818c-66.948-12.982-89.174-33.032-110.668-52.418-20.818-18.778-42.322-38.158-116.030-53.128zM153.814 106.636l-6.988 36.048-7.446 37.182c81.868 16.664 107.5 39.752 130.234 60.258 20.136 18.162 37.526 33.85 96.29 45.244l35.24 6.846 26.364-132.484z" />
<glyph unicode="&#xe90b;" glyph-name="digital-marketing" d="M944 720h-32v16h16c26.51 0 48 21.49 48 48s-21.49 48-48 48v0h-16v80c0 0.043 0.001 0.093 0.001 0.144 0 5.208-2.571 9.816-6.513 12.624l-0.047 0.032c-2.628 2.006-5.958 3.215-9.571 3.215-1.607 0-3.159-0.239-4.621-0.684l0.112 0.029-205.76-63.36h-109.6c-8.837 0-16-7.163-16-16v0-16h-32c-8.837 0-16-7.163-16-16v0-64c0-8.837 7.163-16 16-16v0h32v-16h-96v144c0 8.837-7.163 16-16 16v0h-320c-8.837 0-16-7.163-16-16v0-144h-32c-26.477-0.082-47.918-21.523-48-47.992v-512.008c0.082-26.477 21.523-47.918 47.992-48h368.008v-48h-96c-8.837 0-16-7.163-16-16v0-64c0-8.837 7.163-16 16-16v0h320c8.837 0 16 7.163 16 16v0 64c0 8.837-7.163 16-16 16v0h-96v48h368c26.477 0.082 47.918 21.523 48 47.992v512.008c-0.082 26.477-21.523 47.918-47.992 48h-0.008zM912 800h16c8.837 0 16-7.163 16-16s-7.163-16-16-16v0h-16zM704 836.16l176 54.24v-212.8l-176 54.24zM592 832h80v-96h-80zM637.6 704l-11.52-80h-18.080v80zM544 768v32h16v-32zM144 848h288v-224h-288zM656 32v-32h-288v32zM480 64v48h64v-48zM960 160c0-8.837-7.163-16-16-16v0h-864c-8.837 0-16 7.163-16 16v0 16h896zM960 208h-896v464c0 8.837 7.163 16 16 16v0h32v-80c0-8.837 7.163-16 16-16v0h320c8.837 0 16 7.163 16 16v0 80h112v-80c0-8.837 7.163-16 16-16v0h48c8.045 0.001 14.703 5.94 15.83 13.674l0.010 0.086 14.080 98.24h15.68l205.76-63.36c1.291-0.408 2.777-0.644 4.317-0.644 0.114 0 0.227 0.001 0.34 0.004h-0.017c8.783 0.133 15.867 7.217 16 15.987v32.013h32c8.837 0 16-7.163 16-16v0zM112 240h416c8.837 0 16 7.163 16 16v0 256c0 8.837-7.163 16-16 16v0h-416c-8.837 0-16-7.163-16-16v0-256c0-8.837 7.163-16 16-16v0zM128 272v211.376l183.616-113.008c2.385-1.489 5.281-2.373 8.384-2.373s5.999 0.883 8.452 2.412l-0.068-0.039 183.616 113.008v-211.376zM168.528 496h302.944l-151.472-93.216zM592 336h32v-48c0-8.837 7.163-16 16-16v0h272c8.837 0 16 7.163 16 16v0 192c0 8.837-7.163 16-16 16v0h-16v48c0 8.837-7.163 16-16 16v0h-288c-8.837 0-16-7.163-16-16v0-192c0-8.837 7.163-16 16-16v0zM896 304h-240v160h240zM608 528h256v-32h-224c-8.837 0-16-7.163-16-16v0-112h-16zM688 432h32v-32h-32zM752 432h112v-32h-112zM688 368h64v-32h-64zM784 368h80v-32h-80zM247.584 674.384c2.392-1.501 5.3-2.392 8.415-2.392 2.607 0 5.069 0.624 7.244 1.73l-0.091-0.042 96 48c5.296 2.682 8.863 8.084 8.863 14.32s-3.567 11.638-8.772 14.278l-0.091 0.042-96 48c-2.084 1.064-4.545 1.687-7.152 1.687-8.837 0-16-7.163-16-16 0-0.003 0-0.005 0-0.008v0-96c0-0.002 0-0.005 0-0.008 0-5.721 3.002-10.74 7.517-13.569l0.067-0.039zM272 758.112l44.224-22.112-44.224-22.112z" />
<glyph unicode="&#xe90c;" glyph-name="devo" d="M130.2 897.4c-26 0-47.4-21.4-47.4-47.4s21.2-47.4 47.4-47.4 47.6 21.2 47.6 47.4-21.4 47.4-47.6 47.4zM130.2 832.8c-9.4 0-17.2 7.8-17.2 17.2s7.8 17.2 17.2 17.2c9.4 0 17.2-7.8 17.2-17.2 0-9.6-7.6-17.2-17.2-17.2zM257.6 897.4c-26.2 0-47.6-21.4-47.6-47.4s21.2-47.4 47.4-47.4 47.4 21.2 47.4 47.4-21.2 47.4-47.2 47.4zM257.6 832.8c-9.4 0-17.2 7.8-17.2 17.2s7.8 17.2 17.2 17.2c9.4 0 17.2-7.8 17.2-17.2-0.2-9.6-7.8-17.2-17.2-17.2zM384.8 897.4c-26.2 0-47.4-21.2-47.4-47.4s21.2-47.4 47.4-47.4 47.4 21.2 47.4 47.4-21.2 47.4-47.4 47.4zM384.8 832.8c-9.4 0-17.2 7.8-17.2 17.2s7.6 17.2 17.2 17.2 17.2-7.8 17.2-17.2c0-9.6-7.8-17.2-17.2-17.2zM968.4 960h-912.8c-30.6 0-55.6-25-55.6-55.6v-668.4c0-30.6 25-55.6 55.6-55.6h97.8c-4.6-6-4.2-14.6 1.2-20l72.8-72.8c-5.4-11.2-10.2-22.8-14.2-34.4h-103.2c-8.4 0-15.2-6.8-15.2-15.2v-86.8c0-8.4 6.8-15.2 15.2-15.2h299c8.4 0 15.2 6.8 15.2 15.2 0 46.2 37.6 83.8 83.8 83.8s83.8-37.6 83.8-83.8c0-8.4 6.8-15.2 15.2-15.2h299c8.4 0 15.2 6.8 15.2 15.2v86.8c0 8.4-6.8 15.2-15.2 15.2h-103c-4 11.8-8.8 23.2-14.2 34.4l72.8 72.8c5.4 5.4 5.8 14 1.2 20h105.8c30.6 0 55.6 25 55.6 55.6v374.6c0 8.4-6.8 15.2-15.2 15.2s-15.2-6.8-15.2-15.2v-374.6c0-14-11.4-25.2-25.2-25.2h-136l-89.4 89.2v103.6c0 8.4-6.8 15.2-15.2 15.2h-27.2v93.2l21.4 19.8c4.2 4 6 10 4.2 15.6l-36.4 117.2c-2 6.4-7.8 10.6-14.4 10.6h-40.4c-6.6 0-12.4-4.4-14.4-10.6l-36.4-117.2c-1.8-5.6-0.2-11.6 4.2-15.6l21.4-19.8v-93.4h-27.2c-8.4 0-15.2-6.8-15.2-15.2v-39.4h-119.2v23l58.2 58.2c2.8 2.8 4.4 6.6 4.4 10.8v124.2c0 4-1.6 8-4.6 10.8l-80.8 79.8c-4.4 4.2-10.8 5.6-16.4 3.2s-9.4-7.8-9.4-14v-135l-39.4-24.8-39.4 24.8v8.6c0 8.4-6.8 15.2-15.2 15.2s-15.2-6.8-15.2-15.2v-17c0-5.2 2.6-10 7-12.8l54.6-34.4c5-3.2 11.2-3.2 16.2 0l54.6 34.4c4.4 2.8 7 7.6 7 12.8v107.2l50.4-49.8v-111.6l-58.2-58.2c-2.8-2.8-4.4-6.6-4.4-10.8v-29.6c-7-1.4-12.2-7.6-12.2-14.8v-103c-11.8-4-23.2-8.8-34.4-14.2l-68.6 68.6v93c0 4-1.6 7.8-4.4 10.8l-58.2 58.2v111.6l50.4 49.8v-19.2c0-8.4 6.8-15.2 15.2-15.2s15.2 6.8 15.2 15.2v55.4c0 6.2-3.6 11.6-9.4 14-5.6 2.4-12.2 1-16.4-3.2l-80.8-79.8c-2.8-2.8-4.4-6.8-4.4-10.8v-124.2c0-4 1.6-7.8 4.4-10.8l58.2-58.2v-87l-89.2-89.2h-127.6c-14 0-25.2 11.4-25.2 25.2v504h963.4v-58.6c0-8.4 6.8-15.2 15.2-15.2s15.2 6.8 15.2 15.2v223c-0.2 30.6-25.2 55.6-55.8 55.6zM635.4 529.8l-19.2 17.8 30.2 97.4h18l30.2-97.4-19.2-17.8c-3.2-2.8-4.8-6.8-4.8-11.2v-100h-30.2v100c-0.2 4.4-2 8.4-5 11.2zM713 388.4v-88l-68.6-68.6c-11.2 5.4-22.8 10.2-34.4 14.2v103c0 7.4-5.2 13.4-12.2 14.8v24.6h115.2zM375.8 200c15.8 8.4 32.6 15.4 49.8 20.6 6.4 2 10.8 7.8 10.8 14.4v98.8h143.4v-98.8c0-6.6 4.4-12.6 10.8-14.4 17.2-5.2 34-12.2 49.8-20.6 5.8-3.2 13.2-2 17.8 2.6l69.8 69.8 87.6-87.6c0 0 0 0 0 0l13.8-13.8-69.8-69.8c-4.8-4.8-5.8-12-2.6-17.8 8.4-15.8 15.4-32.6 20.6-49.8 2-6.4 7.8-10.8 14.4-10.8h98.8v-56.6h-154c-7.8 119.4-107.4 214-228.8 214-32.4 0-63.8-6.6-93.2-19.8-7.6-3.4-11-12.4-7.6-20s12.4-11 20-7.6c25.6 11.4 52.8 17.2 80.8 17.2 104.6 0 190.6-81.2 198.4-183.8h-85.2c-7.4 55.8-55.4 99-113.2 99s-105.6-43.2-113.2-99h-85.2c3.6 49.8 25.4 95.4 62.4 130 6.2 5.8 6.4 15.4 0.6 21.4s-15.4 6.4-21.4 0.6c-42.4-39.8-68-94.4-72-152.2h-154v56.6h98.8c6.6 0 12.6 4.4 14.4 10.8 5.2 17.2 12.2 34 20.6 49.8 3.2 5.8 2 13.2-2.6 17.8l-69.8 69.8 13.8 13.8c0 0 0 0 0 0l87.6 87.6 69.8-69.8c4.8-4.4 12-5.6 18-2.4zM30.2 770.2v134.2c0 14 11.4 25.2 25.2 25.2h913c14 0 25.2-11.4 25.2-25.2v-134.4h-963.4z" />
<glyph unicode="&#xe90d;" glyph-name="design" d="M944 848h-864c-35.327-0.048-63.952-28.673-64-63.995v-544.005c0.048-35.327 28.673-63.952 63.995-64h329.805l-21.34-64h-52.46c-8.837 0-16-7.163-16-16v0-32h-144c-8.837 0-16-7.163-16-16s7.163-16 16-16v0h704c8.837 0 16 7.163 16 16s-7.163 16-16 16v0h-176v32c0 8.837-7.163 16-16 16v0h-52.46l-21.34 64h329.8c35.327 0.048 63.952 28.673 64 63.995v544.005c-0.048 35.327-28.673 63.952-63.995 64h-0.005zM672 80v-16h-320v16zM422.2 112l21.34 64h136.92l21.34-64zM976 240c-0.024-17.664-14.337-31.976-31.998-32h-864.002c-17.664 0.024-31.976 14.337-32 31.998v32.002h928zM287.32 448l-6-144h-18.64l-6 144zM258.88 480l10.68 64h4.88l10.68-64zM272 576c-17.34 0-32 21.98-32 48 0 16.42 16.76 40.28 31.96 57.1 13.7-15.2 32.040-39.5 32.040-57.1 0-26.020-14.66-48-32-48zM446.12 608l1.88-3.78v-12.22h-64v12.22l1.88 3.78zM401.88 640l14.12 28.22 14.12-28.22zM448 560v-254c0.007-0.712 0.057-1.405 0.149-2.085l-0.009 0.085h-64.28c0.083 0.595 0.133 1.288 0.14 1.992v254.008zM592 624h48v-32h-16c-8.837 0-16-7.163-16-16s7.163-16 16-16v0h16v-32h-48c-8.837 0-16-7.163-16-16s7.163-16 16-16v0h48v-32h-16c-8.837 0-16-7.163-16-16s7.163-16 16-16v0h16v-32h-48c-8.837 0-16-7.163-16-16s7.163-16 16-16v0h48v-64h-112v384h112v-32h-48c-8.837 0-16-7.163-16-16s7.163-16 16-16v0zM784 432v-126c0.007-0.712 0.057-1.405 0.149-2.085l-0.009 0.085h-64.28c0.083 0.595 0.133 1.288 0.14 1.992v126.008zM720 464v12.22l32 64 32-64v-12.22zM976 304h-160.14c0.083 0.595 0.133 1.288 0.14 1.992v174.008c-0.003 2.609-0.623 5.072-1.722 7.253l0.042-0.093-48 96c-2.691 5.284-8.090 8.841-14.32 8.841s-11.629-3.557-14.278-8.75l-0.042-0.091-48-96c-1.057-2.088-1.677-4.551-1.68-7.159v-174.001c0.007-0.712 0.057-1.405 0.149-2.085l-0.009 0.085h-16.14v400c0 8.837-7.163 16-16 16v0h-144c-8.837 0-16-7.163-16-16v0-400h-16.14c0.083 0.595 0.133 1.288 0.14 1.992v302.008c-0.003 2.609-0.623 5.072-1.722 7.253l0.042-0.093-48 96c-2.691 5.284-8.090 8.841-14.32 8.841s-11.629-3.557-14.278-8.75l-0.042-0.091-48-96c-1.057-2.088-1.677-4.551-1.68-7.159v-302.001c0.007-0.712 0.057-1.405 0.149-2.085l-0.009 0.085h-38.8l6.64 159.34c0.020 0.36 0 0.72 0 1.1v0.48c-0.042 0.634-0.113 1.211-0.214 1.777l0.014-0.097v0.040l-14.8 88.82c18.58 14.020 31.020 39.5 31.020 68.54 0 41.12-47.66 86.66-53.1 91.72-2.852 2.649-6.686 4.275-10.9 4.275s-8.048-1.626-10.91-4.284l0.010 0.009c-5.44-5.060-53.1-50.6-53.1-91.72 0-29.040 12.44-54.52 31.020-68.54l-14.8-88.82v-0.040c-0.087-0.469-0.158-1.046-0.197-1.631l-0.003-0.049v-0.48c0-0.38-0.020-0.74 0-1.1l6.64-159.34h-182.66v480c0.024 17.664 14.337 31.976 31.998 32h864.002c17.664-0.024 31.976-14.337 32-31.998v-0.002zM192 256h-96c-8.837 0-16-7.163-16-16s7.163-16 16-16v0h96c8.837 0 16 7.163 16 16s-7.163 16-16 16v0zM256 256h-16c-8.837 0-16-7.163-16-16s7.163-16 16-16v0h16c8.837 0 16 7.163 16 16s-7.163 16-16 16v0zM416 544c-8.837 0-16-7.163-16-16v0-176c0-8.837 7.163-16 16-16s16 7.163 16 16v0 176c0 8.837-7.163 16-16 16v0zM752 416c-8.837 0-16-7.163-16-16v0-48c0-8.837 7.163-16 16-16s16 7.163 16 16v0 48c0 8.837-7.163 16-16 16v0zM96 752h128c8.837 0 16 7.163 16 16s-7.163 16-16 16v0h-128c-8.837 0-16-7.163-16-16s7.163-16 16-16v0zM96 704h32c8.837 0 16 7.163 16 16s-7.163 16-16 16v0h-32c-8.837 0-16-7.163-16-16s7.163-16 16-16v0zM864 336h64c8.837 0 16 7.163 16 16s-7.163 16-16 16v0h-64c-8.837 0-16-7.163-16-16s7.163-16 16-16v0zM912 384h16c8.837 0 16 7.163 16 16s-7.163 16-16 16v0h-16c-8.837 0-16-7.163-16-16s7.163-16 16-16v0z" />
<glyph unicode="&#xe90e;" glyph-name="branding" d="M358.613 738.347c-141.44 0-256-114.56-256.213-255.787 0-101.76 60.16-194.133 153.6-234.88v-123.947c0-28.373 22.827-51.2 51.2-51.2v-17.067c0-28.373 22.827-51.2 51.2-51.2s51.2 22.827 51.2 51.2v17.067c28.373 0 51.2 22.827 51.2 51.2v123.947c93.227 40.747 153.387 132.693 153.6 234.453 0 141.44-114.56 256-255.787 256.213zM375.467 55.467c0-9.387-7.68-17.067-17.067-17.067s-17.067 7.68-17.067 17.067v17.067h34.133v-17.067zM409.6 106.667h-102.4c-9.387 0-17.067 7.68-17.067 17.067h136.533c0-9.387-7.68-17.067-17.067-17.067zM426.667 157.867h-136.533v17.067h136.533v-17.067zM426.667 209.067h-136.533v26.667c44.587-12.8 91.947-12.8 136.533 0v-26.667zM418.347 268.8l25.173 176.853-33.707 4.907-26.88-188.8c-16.213-1.92-32.64-1.92-48.853 0l-26.88 188.8-33.707-4.907 25.173-176.853c-95.787 26.88-161.92 113.92-162.133 213.333-0.213 122.453 99.2 221.867 221.653 222.080s221.867-99.2 222.080-221.653c0-99.627-66.133-186.88-161.92-213.76zM1019.093 664.96l-221.867 221.867c-3.2 3.2-7.467 4.907-12.16 4.907v51.2c0 9.387-7.68 17.067-17.067 17.067l-580.267-0.213c-4.48 0-8.96-1.707-12.16-4.907l-170.667-170.667c-3.2-3.2-4.907-7.467-4.907-12.16v0-819.2c0-9.387 7.68-17.067 17.067-17.067h750.933c9.387 0 17.067 7.68 17.067 17.067v556.373l39.040-39.040c6.613-6.613 17.493-6.613 24.107 0l170.667 170.667c6.827 6.613 6.827 17.28 0.213 24.107zM716.8 925.867h34.133v-34.133h-34.133v34.133zM170.667 901.76v-112.427h-112.427l112.427 112.427zM682.667-29.867h-648.533v785.067h153.6c9.387 0 17.067 7.68 17.067 17.067v153.6h477.867v-34.133h-68.267c-9.387 0-17.067-7.68-17.067-17.067v-170.667c0-4.48 1.707-8.96 4.907-12.16l80.427-80.427v-641.28zM750.933-29.867h-34.133v607.36l34.133-34.133v-573.227zM836.267 506.24l-204.8 204.8v146.56h146.56l204.8-204.8-146.56-146.56zM434.347 531.413c-4.907 2.347-10.453 2.347-15.36 0l-60.587-30.293-60.587 30.293c-4.907 2.347-10.453 2.347-15.36 0l-68.267-34.133 15.36-30.507 60.587 30.293 60.587-30.507c4.907-2.347 10.453-2.347 15.36 0l60.587 30.507 60.587-30.507 15.36 30.507-68.267 34.347zM716.8 823.467c-28.373 0-51.2-22.827-51.2-51.2s22.827-51.2 51.2-51.2 51.2 22.827 51.2 51.2-22.827 51.2-51.2 51.2zM716.8 755.2c-9.387 0-17.067 7.68-17.067 17.067s7.68 17.067 17.067 17.067 17.067-7.68 17.067-17.067-7.68-17.067-17.067-17.067zM426.667 789.333h136.533v-34.133h-136.533v34.133zM512 857.6h51.2v-34.133h-51.2v34.133zM341.333 857.6h136.533v-34.133h-136.533v34.133zM807.089 596.585l85.38 85.38 24.136-24.136-85.38-85.38-24.136 24.136zM1020.16 373.12v0l-68.267 85.547c-6.4 7.467-17.493 8.107-24.96 1.707-0.64-0.427-1.28-1.067-1.707-1.707l-68.267-85.333 0.213-0.213c-2.56-2.987-3.84-6.613-3.84-10.453v-392.533c0-18.773 15.36-34.133 34.133-34.133h102.4c18.773 0 34.133 15.36 34.133 34.133v392.533c0 3.84-1.493 7.467-3.84 10.453zM938.667 420.693l32.853-40.96h-65.493l32.64 40.96zM989.867-29.867h-102.4v375.467h102.4v-375.467zM512 226.133h136.533v-34.133h-136.533v34.133zM512 157.867h136.533v-34.133h-136.533v34.133zM512 89.6h136.533v-34.133h-136.533v34.133z" />
<glyph unicode="&#xe936;" glyph-name="price-tags" horiz-adv-x="1280" d="M1232 960h-384c-26.4 0-63.274-15.274-81.942-33.942l-476.116-476.116c-18.668-18.668-18.668-49.214 0-67.882l412.118-412.118c18.668-18.668 49.214-18.668 67.882 0l476.118 476.118c18.666 18.666 33.94 55.54 33.94 81.94v384c0 26.4-21.6 48-48 48zM992 576c-53.020 0-96 42.98-96 96s42.98 96 96 96 96-42.98 96-96-42.98-96-96-96zM128 416l544 544h-80c-26.4 0-63.274-15.274-81.942-33.942l-476.116-476.116c-18.668-18.668-18.668-49.214 0-67.882l412.118-412.118c18.668-18.668 49.214-18.668 67.882 0l30.058 30.058-416 416z" />
<glyph unicode="&#xe942;" glyph-name="phone" d="M704 320c-64-64-64-128-128-128s-128 64-192 128-128 128-128 192 64 64 128 128-128 256-192 256-192-192-192-192c0-128 131.5-387.5 256-512s384-256 512-256c0 0 192 128 192 192s-192 256-256 192z" />
<glyph unicode="&#xe947;" glyph-name="location" d="M512 960c-176.732 0-320-143.268-320-320 0-320 320-704 320-704s320 384 320 704c0 176.732-143.27 320-320 320zM512 448c-106.040 0-192 85.96-192 192s85.96 192 192 192 192-85.96 192-192-85.96-192-192-192z" />
<glyph unicode="&#xe948;" glyph-name="location2" d="M512 960c-176.732 0-320-143.268-320-320 0-320 320-704 320-704s320 384 320 704c0 176.732-143.27 320-320 320zM512 444c-108.248 0-196 87.752-196 196s87.752 196 196 196 196-87.752 196-196-87.752-196-196-196zM388 640c0 68.483 55.517 124 124 124s124-55.517 124-124c0-68.483-55.517-124-124-124s-124 55.517-124 124z" />
<glyph unicode="&#xea13;" glyph-name="enter" d="M384 448h-320v128h320v128l192-192-192-192zM1024 960v-832l-384-192v192h-384v256h64v-192h320v576l256 128h-576v-256h-64v320z" />
<glyph unicode="&#xea14;" glyph-name="exit" d="M768 320v128h-320v128h320v128l192-192zM704 384v-256h-320v-192l-384 192v832h704v-320h-64v256h-512l256-128v-576h256v192z" />
</font>
</defs>
</svg>
